HIERARCHY
ROOT Hips
{
  OFFSET -35.2597 29.1586 114.425
  CHANNELS 6 Xposition Yposition Zposition Zrotation Xrotation Yrotation
  JOINT LeftUpLeg
  {
    OFFSET 8.64259 1.95398 -2.38835
    CHANNELS 3 Zrotation Xrotation Yrotation
    JOINT LeftLeg
    {
      OFFSET 43.7702 0 0
      CHANNELS 3 Zrotation Xrotation Yrotation
      JOINT LeftFoot
      {
        OFFSET 40.6238 0 0
        CHANNELS 3 Zrotation Xrotation Yrotation
        JOINT LeftToeBase
        {
          OFFSET 12.7242 0 0
          CHANNELS 3 Zrotation Xrotation Yrotation
          End Site
          {
            OFFSET 0 0 0
          }
        }
      }
    }
  }
  JOINT RightUpLeg
  {
    OFFSET -8.2249 1.95398 -2.59336
    CHANNELS 3 Zrotation Xrotation Yrotation
    JOINT RightLeg
    {
      OFFSET 43.5653 0 0
      CHANNELS 3 Zrotation Xrotation Yrotation
      JOINT RightFoot
      {
        OFFSET 40.6238 0 0
        CHANNELS 3 Zrotation Xrotation Yrotation
        JOINT RightToeBase
        {
          OFFSET 12.7242 0 0
          CHANNELS 3 Zrotation Xrotation Yrotation
          End Site
          {
            OFFSET 0 0 0
          }
        }
      }
    }
  }
  JOINT Spine
  {
    OFFSET 0.165834 0.87714 6.61349
    CHANNELS 3 Zrotation Xrotation Yrotation
    JOINT Spine1
    {
      OFFSET 7.38963 1.71661e-005 0
      CHANNELS 3 Zrotation Xrotation Yrotation
      JOINT Spine2
      {
        OFFSET 11.9445 1.14441e-005 0
        CHANNELS 3 Zrotation Xrotation Yrotation
        JOINT Spine3
        {
          OFFSET 14.7254 4.19617e-005 0
          CHANNELS 3 Zrotation Xrotation Yrotation
          JOINT Spine4
          {
            OFFSET 10.9679 0 0
            CHANNELS 3 Zrotation Xrotation Yrotation
            JOINT RightShoulder
            {
              OFFSET 2.46616 -1.6653 3.69651
              CHANNELS 3 Zrotation Xrotation Yrotation
              JOINT RightArm
              {
                OFFSET 13.0012 0 0
                CHANNELS 3 Zrotation Xrotation Yrotation
                JOINT RightForeArm
                {
                  OFFSET 28.7848 1.62311e-005 0
                  CHANNELS 3 Zrotation Xrotation Yrotation
                  JOINT RightHand
                  {
                    OFFSET 26.5688 1.62095e-005 0
                    CHANNELS 3 Zrotation Xrotation Yrotation
                    End Site
                    {
                      OFFSET 0 0 0
                    }
                  }
                }
              }
            }
            JOINT LeftShoulder
            {
              OFFSET 2.38034 -1.29275 -3.7523
              CHANNELS 3 Zrotation Xrotation Yrotation
              JOINT LeftArm
              {
                OFFSET 16.3182 6.07031e-005 0
                CHANNELS 3 Zrotation Xrotation Yrotation
                JOINT LeftForeArm
                {
                  OFFSET 27.0901 0 0
                  CHANNELS 3 Zrotation Xrotation Yrotation
                  JOINT LeftHand
                  {
                    OFFSET 24.5451 1.51738e-005 0
                    CHANNELS 3 Zrotation Xrotation Yrotation
                    End Site
                    {
                      OFFSET 0 0 0
                    }
                  }
                }
              }
            }
            JOINT Neck
            {
              OFFSET 5.0226 -0.0266342 0
              CHANNELS 3 Zrotation Xrotation Yrotation
              JOINT Head
              {
                OFFSET 6.69364 2.86102e-005 0
                CHANNELS 3 Zrotation Xrotation Yrotation
                End Site
                {
                  OFFSET 0 0 0
                }
              }
            }
          }
        }
      }
    }
  }
}
MOTION
Frames:	9
Frame Time:	0.0416667
31.9725 100.002 26.4595 -150.914 -79.9526 -151.775 -174.474 -2.40167 88.2545 -19.3309 7.4747 -0.224946 73.9405 8.09096 -3.07466 15.5034 -12.0823 7.45859 173.125 -6.30494 88.1712 -9.98135 -17.0115 -1.20102 68.3042 -6.95722 -1.61362 23.7836 1.08789 3.0528 0.310128 7.58718 -90.0275 11.6999 0.603988 -0.118131 0.0291425 0.598203 -0.1446 -22.5071 0.611561 0.0688648 -2.4945 0.611555 0.0688568 89.3132 -35.7935 -105.971 47.0893 5.9344 -4.78629 -5.64475 -46.6945 -5.66583 -24.6918 2.01689 -14.6568 -86.0175 -58.6682 85.8852 -27.3092 -11.5923 -16.1879 3.56074 40.0363 -4.63432 3.77587 -0.409104 -10.2966 5.07555 -0.698767 -0.981015 -9.87226 -0.699614 2.47179 
31.8956 99.7926 26.2557 -148.197 -80.7116 -149.113 -175.073 -1.32922 87.8579 -19.6024 8.29608 0.189784 74.0976 8.56055 -1.50464 16.1847 -12.0512 8.06271 173.693 -5.55313 88.488 -10.0789 -20.5892 -1.67763 67.9994 -7.25985 -4.61806 24.1065 1.50366 1.46473 0.355416 7.43179 -90 12.0107 0.70668 -0.0768653 0.339971 0.702607 -0.107892 -22.1967 0.697101 0.139079 -2.18405 0.697109 0.139091 89.1523 -36.1376 -106.146 46.5523 6.41016 -3.90046 -5.52626 -45.1642 -5.58904 -24.347 2.98676 -19.3732 -86.2481 -58.6679 85.5691 -26.2607 -12.122 -16.1033 3.67108 41.9401 -4.74622 0.114632 -0.2248 -10.6491 3.82983 -0.872482 -1.64081 -9.09915 -0.822091 3.4652 
31.853 99.7992 26.1343 -149.234 -80.4187 -150.085 -174.947 -1.54793 87.981 -19.7076 8.26335 0.141277 74.2974 8.67646 -1.53957 16.4047 -12.154 8.42069 173.703 -5.91902 88.5711 -9.87595 -20.5963 -1.66326 67.9356 -7.29934 -4.86872 23.9264 1.47888 1.75246 0.385333 7.48256 -89.9995 11.9092 0.766521 -0.0813609 0.238476 0.762197 -0.115028 -22.2984 0.755532 0.152788 -2.2858 0.755533 0.15278 89.1399 -36.2096 -106.144 46.4394 6.39324 -4.13035 -5.57343 -45.7828 -5.61914 -23.8919 2.79274 -18.708 -86.359 -58.362 85.3773 -26.1369 -12.186 -16.0699 3.69007 42.274 -4.76434 -0.655233 -0.208101 -12.1193 3.75294 -0.775135 -1.27144 -8.71072 -0.731658 2.77328 
31.8075 99.7949 26.053 -149.091 -80.3481 -150.002 -175.016 -1.60848 87.9196 -19.5921 8.20898 0.201281 74.1364 8.59508 -1.42602 16.3767 -11.8452 7.95442 173.717 -5.87225 88.5657 -10.0373 -20.8946 -1.70028 67.9233 -7.27539 -4.99135 23.837 1.70547 1.20827 0.390064 7.48338 -90.0241 11.9078 0.764311 -0.130228 0.237058 0.757842 -0.163756 -22.2999 0.768108 0.105514 -2.28723 0.768114 0.105513 89.4109 -35.9346 -105.745 45.8884 6.638 -4.07387 -5.73448 -47.8013 -5.72572 -23.0434 2.93517 -19.958 -86.3623 -59.166 85.4774 -25.6893 -12.4027 -16.1377 3.67468 42.06 -4.74743 -0.334501 -0.227011 -12.0354 3.97258 -0.819575 -1.0318 -9.29396 -0.844981 2.98975 
31.8078 99.8075 25.9679 -149.18 -80.4242 -150.114 -175.125 -1.4765 87.8289 -19.6344 8.15313 0.287969 74.198 8.5902 -1.58528 16.0953 -12.1368 8.09883 173.663 -5.58052 88.4947 -10.3265 -20.4041 -1.63318 68.0425 -7.22592 -4.38217 24.0378 1.52749 1.47777 0.364353 7.47443 -90.0258 11.9256 0.712391 -0.128131 0.254829 0.70605 -0.159375 -22.2819 0.717962 0.091908 -2.26924 0.717957 0.0918954 89.537 -35.7712 -105.57 45.6967 6.65772 -4.29709 -5.888 -49.596 -5.83131 -22.1329 2.82447 -20.0199 -86.287 -59.3923 85.6091 -25.4522 -12.5156 -16.1999 3.67688 42.0824 -4.7513 -0.68974 -0.202777 -12.0047 4.42228 -0.786902 -0.923097 -9.65039 -0.843555 3.07587 
31.7732 99.8054 25.9513 -149.381 -80.2058 -150.305 -175.024 -1.6421 87.9038 -19.6891 8.19006 0.211954 74.0818 8.545 -1.35729 16.412 -11.8162 7.94652 173.732 -5.85269 88.552 -10.1942 -20.5782 -1.72569 68.0106 -7.2715 -4.67755 23.8375 1.53371 1.70151 0.376401 7.4977 -90.0277 11.8791 0.735505 -0.133999 0.208358 0.728898 -0.166247 -22.3285 0.741766 0.0932573 -2.31582 0.741773 0.0932597 89.4432 -35.7667 -105.743 45.6321 6.69867 -4.24486 -5.84171 -49.0664 -5.79908 -21.5195 2.86381 -20.6719 -86.3133 -59.16 85.5436 -25.7099 -12.3845 -16.2405 3.67909 42.0693 -4.75415 -0.633999 -0.207334 -12.058 4.38596 -0.851476 -1.06962 -9.26847 -0.881769 3.22374 
31.7469 99.8129 25.9222 -149.329 -80.1183 -150.296 -174.969 -1.69209 87.9376 -19.7185 7.99132 0.162961 74.1726 8.48376 -1.80118 16.3006 -12.1667 8.33904 173.715 -5.97217 88.5267 -10.1037 -20.7283 -1.74628 68.0646 -7.3586 -4.88382 23.5735 1.66096 1.65314 0.357024 7.49831 -90.0131 11.8778 0.703792 -0.101616 0.207037 0.698644 -0.132504 -22.3296 0.701791 0.114614 -2.31698 0.701796 0.114607 89.1296 -35.8948 -106.27 45.5866 6.72586 -4.2143 -5.80814 -48.6754 -5.77592 -22.12 2.86517 -20.2399 -86.1682 -59.0584 85.7284 -25.6595 -12.4159 -16.158 3.66036 41.7626 -4.73548 -0.875622 -0.194828 -12.3454 4.45635 -0.804069 -1.12334 -9.35036 -0.833815 3.31768 
31.7147 99.8103 25.8986 -150.077 -80.028 -150.921 -174.887 -1.82119 88.0979 -19.7245 8.34303 0.172477 74.2094 8.61498 -1.50007 16.1996 -12.0551 8.08284 173.779 -6.03752 88.6503 -10.2358 -20.3189 -1.72361 68.0859 -7.30105 -4.53921 23.6968 1.65172 1.53239 0.341756 7.52147 -90.0225 11.8315 0.669079 -0.116111 0.16069 0.663332 -0.145442 -22.3758 0.67304 0.0903534 -2.3632 0.673047 0.0903587 89.1715 -35.8946 -106.194 45.8373 6.54444 -4.4981 -5.85146 -49.1796 -5.80579 -22.6448 2.68593 -18.9633 -86.0478 -59.1231 85.9007 -25.6336 -12.4128 -16.3664 3.65206 41.6038 -4.72701 -0.86268 -0.192375 -12.0914 4.59322 -0.684385 -0.891789 -9.14707 -0.715599 2.83259 
31.7183 99.795 25.8614 -149.333 -79.9488 -150.262 -175.024 -1.7787 87.9233 -19.7646 7.88832 0.258134 74.1141 8.50073 -1.67083 16.4004 -11.7985 7.90963 173.685 -5.82392 88.5335 -10.5471 -21.0571 -1.70042 67.8795 -7.14506 -4.81671 24.2235 1.57545 1.11235 0.382495 7.48551 -90.0259 11.9035 0.748381 -0.13215 0.232715 0.741835 -0.164966 -22.3042 0.75349 0.0988835 -2.29152 0.753494 0.0988926 89.334 -35.5745 -106.008 45.8423 6.61879 -4.21618 -5.82902 -48.9209 -5.79028 -21.6579 2.81916 -20.3329 -86.2894 -59.2588 85.5889 -25.5514 -12.4674 -16.1849 3.6642 41.7264 -4.7376 -0.909332 -0.191809 -12.2892 4.06951 -0.818999 -0.603044 -8.99804 -0.89954 2.82974 
